<svg width="80" height="80" viewBox="0 0 80 80" fill="none" xmlns="http://www.w3.org/2000/svg">
<g clip-path="url(#clip0_6_2793)">
<path d="M11.6996 68.2976C27.3066 83.8971 52.6981 83.9008 68.2976 68.2976C83.8971 52.6944 83.8971 27.3029 68.2976 11.6996C52.6888 -3.89988 27.3029 -3.89988 11.6996 11.6996C-3.89988 27.3029 -3.89988 52.6944 11.6996 68.2976ZM24.6663 24.2003C26.101 22.7656 28.4196 22.7656 29.8525 24.2003L40.227 34.5747L50.6014 24.2003C52.0361 22.7656 54.3529 22.7656 55.7877 24.2003C57.2224 25.6351 57.2224 27.9518 55.7877 29.3866L45.4132 39.761L55.784 50.1317C57.2187 51.5665 57.2187 53.8832 55.784 55.318C55.0684 56.0336 54.1291 56.3923 53.1899 56.3923C52.2506 56.3923 51.3114 56.0336 50.5958 55.318L40.2251 44.9473L29.8544 55.318C29.1352 56.0336 28.1996 56.3923 27.2603 56.3923C26.3211 56.3923 25.3818 56.0336 24.6663 55.318C23.2315 53.8832 23.2315 51.5647 24.6663 50.1317L35.037 39.761L24.6626 29.3866C23.2315 27.9537 23.2315 25.6351 24.6663 24.2003Z" fill="#9CA3AF"/>
</g>
<defs>
<clipPath id="clip0_6_2793">
<rect width="80" height="80" fill="white"/>
</clipPath>
</defs>
</svg>
